<svg width="82" height="65" viewBox="0 0 82 65" fill="none" xmlns="http://www.w3.org/2000/svg">
<path d="M22.1945 0L33.2253 14.2204C30.9217 15.2836 28.618 16.6126 26.3144 18.2075C24.0994 19.8023 22.2831 21.9287 20.8655 24.5867C19.5365 27.2447 18.872 30.7888 18.872 35.2188L0 34.5543C0 27.732 1.24041 22.0173 3.72123 17.41C6.20205 12.7142 9.12588 8.94868 12.4927 6.11346C15.9481 3.27823 19.1821 1.2404 22.1945 0ZM30.5673 34.5543V64.7228H0V34.5543H30.5673ZM70.9692 0L82 14.2204C79.6078 15.2836 77.3042 16.6126 75.0891 18.2075C72.8741 19.8023 71.0578 21.9287 69.6402 24.5867C68.2226 27.2447 67.5138 30.7888 67.5138 35.2188L48.7747 34.5543C48.7747 27.732 49.9708 22.0173 52.363 17.41C54.8439 12.7142 57.812 8.94868 61.2674 6.11346C64.7228 3.27823 67.9568 1.2404 70.9692 0ZM79.342 34.5543V64.7228H48.7747V34.5543H79.342Z" fill="#003554"/>
</svg>
