<svg width="35" height="36" viewBox="0 0 35 36" fill="none" xmlns="http://www.w3.org/2000/svg">
<path d="M3.28125 2.6875C3.28125 2.08344 2.79156 1.59375 2.1875 1.59375C1.58344 1.59375 1.09375 2.08344 1.09375 2.6875V32.2188C1.09375 32.7989 1.32422 33.3553 1.73445 33.7655C2.14469 34.1758 2.70109 34.4062 3.28125 34.4062H32.8125C33.4166 34.4062 33.9062 33.9166 33.9062 33.3125C33.9062 32.7084 33.4166 32.2188 32.8125 32.2188H3.28125V2.6875Z" fill="#003554"/>
<path fill-rule="evenodd" clip-rule="evenodd" d="M7.92969 14.7188C6.57055 14.7188 5.46875 15.8205 5.46875 17.1797V27.5703C5.46875 28.9295 6.57055 30.0312 7.92969 30.0312H10.6641C12.0232 30.0312 13.125 28.9295 13.125 27.5703V17.1797C13.125 15.8205 12.0232 14.7188 10.6641 14.7188H7.92969ZM7.65625 17.1797C7.65625 17.0287 7.77867 16.9062 7.92969 16.9062H10.6641C10.8151 16.9062 10.9375 17.0287 10.9375 17.1797V27.5703C10.9375 27.7213 10.8151 27.8438 10.6641 27.8438H7.92969C7.77867 27.8438 7.65625 27.7213 7.65625 27.5703V17.1797Z" fill="#003554"/>
<path fill-rule="evenodd" clip-rule="evenodd" d="M15.3125 13.8984C15.3125 12.5393 16.4143 11.4375 17.7734 11.4375H20.5078C21.867 11.4375 22.9688 12.5393 22.9688 13.8984V27.5703C22.9688 28.9295 21.867 30.0312 20.5078 30.0312H17.7734C16.4143 30.0312 15.3125 28.9295 15.3125 27.5703V13.8984ZM17.7734 13.625C17.6224 13.625 17.5 13.7474 17.5 13.8984V27.5703C17.5 27.7213 17.6224 27.8438 17.7734 27.8438H20.5078C20.6588 27.8438 20.7812 27.7213 20.7812 27.5703V13.8984C20.7812 13.7474 20.6588 13.625 20.5078 13.625H17.7734Z" fill="#003554"/>
<path fill-rule="evenodd" clip-rule="evenodd" d="M27.5926 7.0625C26.2334 7.0625 25.1316 8.1643 25.1316 9.52344V27.5703C25.1316 28.9295 26.2334 30.0312 27.5926 30.0312H30.327C31.6861 30.0312 32.7879 28.9295 32.7879 27.5703V9.52344C32.7879 8.1643 31.6861 7.0625 30.327 7.0625H27.5926ZM27.3191 9.52344C27.3191 9.37242 27.4416 9.25 27.5926 9.25H30.327C30.478 9.25 30.6004 9.37242 30.6004 9.52344V27.5703C30.6004 27.7213 30.478 27.8438 30.327 27.8438H27.5926C27.4416 27.8438 27.3191 27.7213 27.3191 27.5703V9.52344Z" fill="#003554"/>
</svg>
