<svg width="71" height="71" viewBox="0 0 71 71" fill="none" xmlns="http://www.w3.org/2000/svg">
<path d="M4.72083 2.36042C4.72083 1.05679 3.66404 0 2.36042 0C1.05679 0 0 1.05679 0 2.36042V66.0917C0 67.3437 0.49737 68.5445 1.3827 69.4298C2.26803 70.3151 3.4688 70.8125 4.72083 70.8125H68.4521C69.7557 70.8125 70.8125 69.7557 70.8125 68.4521C70.8125 67.1485 69.7557 66.0917 68.4521 66.0917H4.72083V2.36042Z" fill="#003554"/>
<path fill-rule="evenodd" clip-rule="evenodd" d="M14.7526 28.325C11.8195 28.325 9.44167 30.7028 9.44167 33.6359V56.0599C9.44167 58.993 11.8195 61.3708 14.7526 61.3708H20.6536C23.5868 61.3708 25.9646 58.993 25.9646 56.0599V33.6359C25.9646 30.7028 23.5868 28.325 20.6536 28.325H14.7526ZM14.1625 33.6359C14.1625 33.31 14.4267 33.0458 14.7526 33.0458H20.6536C20.9796 33.0458 21.2437 33.31 21.2437 33.6359V56.0599C21.2437 56.3858 20.9796 56.65 20.6536 56.65H14.7526C14.4267 56.65 14.1625 56.3858 14.1625 56.0599V33.6359Z" fill="#003554"/>
<path fill-rule="evenodd" clip-rule="evenodd" d="M30.6854 26.5547C30.6854 23.6215 33.0632 21.2437 35.9964 21.2437H41.8974C44.8305 21.2437 47.2083 23.6215 47.2083 26.5547V56.0599C47.2083 58.993 44.8305 61.3708 41.8974 61.3708H35.9964C33.0632 61.3708 30.6854 58.993 30.6854 56.0599V26.5547ZM35.9964 25.9646C35.6704 25.9646 35.4062 26.2288 35.4062 26.5547V56.0599C35.4062 56.3858 35.6704 56.65 35.9964 56.65H41.8974C42.2233 56.65 42.4875 56.3858 42.4875 56.0599V26.5547C42.4875 26.2288 42.2233 25.9646 41.8974 25.9646H35.9964Z" fill="#003554"/>
<path fill-rule="evenodd" clip-rule="evenodd" d="M57.187 11.8021C54.2538 11.8021 51.8761 14.1799 51.8761 17.113V56.0599C51.8761 58.993 54.2538 61.3708 57.187 61.3708H63.088C66.0212 61.3708 68.399 58.993 68.399 56.0599V17.113C68.399 14.1799 66.0212 11.8021 63.088 11.8021H57.187ZM56.5969 17.113C56.5969 16.7871 56.8611 16.5229 57.187 16.5229H63.088C63.4139 16.5229 63.6781 16.7871 63.6781 17.113V56.0599C63.6781 56.3858 63.4139 56.65 63.088 56.65H57.187C56.8611 56.65 56.5969 56.3858 56.5969 56.0599V17.113Z" fill="#003554"/>
</svg>
