<svg width="39" height="39" viewBox="0 0 39 39" fill="none" xmlns="http://www.w3.org/2000/svg">
<g clip-path="url(#clip0_378_2104)">
<path fill-rule="evenodd" clip-rule="evenodd" d="M13.1279 6.6006C13.8093 6.32518 14.529 6.15988 15.2603 6.10992C14.8505 6.30037 14.4778 6.52006 14.1773 6.75586L14.1733 6.759C12.7704 7.86925 12.2114 9.36062 12.1272 11.0601L12.1272 11.0617C12.1116 11.384 12.115 11.7478 12.2067 12.1486C12.2994 12.5538 12.4676 12.9349 12.7118 13.3272C13.1028 13.9555 13.7376 14.6847 14.6942 15.6645L14.2974 16.0515C12.8619 14.665 11.8308 13.8824 11.1587 13.4743C10.3599 12.9893 9.67489 12.8272 9.26349 12.7826L9.25237 12.7815C8.52104 12.709 7.78522 12.8641 7.14543 13.2255C6.97045 13.3227 6.81036 13.4445 6.67007 13.5873L6.66353 13.594C6.45272 13.8119 6.28716 14.0694 6.1764 14.3516C6.06564 14.6339 6.01188 14.9352 6.01822 15.2383C6.02456 15.5415 6.09087 15.8403 6.21333 16.1177C6.23681 16.1708 6.26226 16.223 6.28961 16.2741L5.20192 17.3362L2.80303 14.9948L3.95107 13.8729L3.97757 13.8821C4.25703 13.9766 4.5541 14.0071 4.84684 13.9715C5.23561 13.9278 5.86331 13.7926 6.34931 13.3304L6.35652 13.3235C6.72293 12.9693 6.85873 12.5474 6.90472 12.2134C6.94433 11.9258 6.92366 11.6428 6.91228 11.4868L6.9109 11.4679C6.90096 11.3304 6.89625 11.2543 6.89567 11.2035C7.29695 10.6818 7.73319 10.188 8.20141 9.72535C8.6003 9.3346 10.2834 7.74592 13.1264 6.60121L13.1279 6.6006ZM13.0733 18.2658C11.4502 16.6448 10.4132 15.8733 9.89361 15.5578C9.42941 15.276 9.09466 15.2169 9.00585 15.2065C8.86186 15.193 8.71744 15.2074 8.58021 15.2479C8.71727 15.3883 8.82692 15.5531 8.90338 15.7341C8.98516 15.9276 9.0273 16.1356 9.0273 16.3457C9.0273 16.5558 8.98516 16.7638 8.90338 16.9574C8.82181 17.1504 8.70244 17.3252 8.55232 17.4714L8.55117 17.4725L6.32039 19.6509C6.17349 19.7969 5.99926 19.9125 5.80763 19.9912C5.61564 20.07 5.41001 20.1102 5.20255 20.1094C4.79239 20.11 4.39769 19.9519 4.10124 19.6679L4.09646 19.6633L4.093 19.66L0.469499 16.1233C0.45843 16.1125 0.447568 16.1015 0.436918 16.0903C0.156318 15.7947 -0.00012207 15.4027 -0.00012207 14.9952C-0.00012207 14.5877 0.156318 14.1957 0.436918 13.9001L1.32077 14.7393L0.468971 13.8676L2.70658 11.681L2.70844 11.6792C2.85851 11.5321 3.03645 11.4165 3.23182 11.3392C3.4216 11.264 3.62409 11.2265 3.82803 11.2285C4.04821 11.2289 4.26382 11.2751 4.46204 11.362C4.45692 11.2349 4.45607 11.0877 4.4686 10.9399C4.49439 10.6356 4.58078 10.24 4.85207 9.86437L4.86713 9.84397C5.36256 9.1873 5.90503 8.56749 6.49027 7.98942L6.49369 7.98606C7.01181 7.4783 8.95964 5.6514 12.2152 4.3404C13.3362 3.88744 14.534 3.65514 15.743 3.65625C17.7919 3.65643 19.4034 4.54864 20.0843 5.16531C20.0917 5.17201 20.099 5.1788 20.1062 5.18567C20.4435 5.50664 20.7524 5.85632 21.0292 6.23075C21.3494 6.66387 21.3473 7.25581 21.024 7.68666C20.7008 8.11751 20.1331 8.28508 19.6277 8.09881C19.4491 8.03299 19.2667 7.97786 19.0816 7.93373C18.7017 7.85445 18.3123 7.83056 17.9254 7.86282L17.9235 7.86298C17.1187 7.92879 16.1299 8.32318 15.6839 8.67201C14.9708 9.23727 14.6209 9.98797 14.5618 11.1801C14.5515 11.3948 14.5611 11.5101 14.5828 11.6051C14.6036 11.6959 14.6493 11.8273 14.7812 12.0393C15.0733 12.5086 15.6762 13.205 16.9562 14.4855C16.9719 14.5012 16.9872 14.5173 17.0021 14.5339C17.0081 14.5406 17.014 14.5473 17.0199 14.5541C17.133 14.5595 17.2461 14.5723 17.3585 14.5927C17.869 14.6851 18.3401 14.9282 18.7112 15.2907C19.0337 15.6037 19.5628 16.1183 20.4205 16.9537L21.9097 15.5698L21.911 15.5686C22.0245 15.4638 22.1067 15.3296 22.1487 15.181C22.1907 15.0324 22.1908 14.875 22.149 14.7263L22.149 14.7262C21.3726 11.9638 21.3991 8.47473 23.8247 6.0668L23.8249 6.06666C26.2426 3.66606 30.0178 3.02909 32.9685 4.29237L32.973 4.29428L32.9774 4.29624C33.1689 4.38003 33.337 4.50929 33.4671 4.67277C33.5972 4.83621 33.6855 5.029 33.7242 5.23443C33.7629 5.43981 33.7508 5.65151 33.6891 5.85113C33.6274 6.05058 33.5181 6.23201 33.3704 6.37966L33.37 6.38003L29.4964 10.2537L29.4953 10.2548C29.3377 10.4138 29.2493 10.6286 29.2493 10.8526C29.2493 11.0766 29.3378 11.2915 29.4955 11.4506L29.4964 11.4515L31.2036 13.1594L31.2048 13.1606C31.3641 13.3182 31.5791 13.4067 31.8033 13.4067C32.0274 13.4067 32.2425 13.3182 32.4018 13.1606L32.403 13.1594L36.2954 9.26541L36.2959 9.26492L36.2964 9.26443C36.4401 9.12097 36.6159 9.01367 36.8091 8.95134C37.0024 8.889 37.2076 8.8734 37.4081 8.90583C37.6085 8.93825 37.7984 9.01776 37.9622 9.13787C38.1259 9.25796 38.2588 9.41519 38.35 9.59663L38.3535 9.60369L38.357 9.61078C39.0038 10.9409 39.1413 12.6467 38.862 14.2581C38.5806 15.8819 37.8507 17.5601 36.5852 18.8067C34.1923 21.164 30.7606 21.2143 28.0213 20.4824L28.0204 20.4822C27.8732 20.4427 27.7182 20.4441 27.5718 20.4862C27.4254 20.5283 27.2933 20.6095 27.1896 20.7211L27.1882 20.7227L25.8754 22.1257C28.7893 24.8234 31.9975 27.7307 33.309 28.8232C33.5492 29.0219 33.7454 29.2686 33.8851 29.5474C34.0253 29.8274 34.1054 30.1336 34.1201 30.4465C34.1349 30.7593 34.084 31.0717 33.9708 31.3636C33.8577 31.6553 33.6848 31.92 33.4634 32.141L33.4626 32.1417L30.9214 34.6822L30.9149 34.6886L30.9115 34.692C30.6897 34.9087 30.4262 35.078 30.1369 35.1896C29.8476 35.3011 29.5387 35.3527 29.2289 35.3411C28.9191 35.3295 28.6149 35.255 28.3348 35.122C28.0547 34.9891 27.8045 34.8006 27.5996 34.568L27.595 34.5627L27.591 34.558C26.4786 33.2673 23.6347 30.1982 20.957 27.3823L14.8441 33.9156C14.454 34.3487 13.9803 34.6985 13.4514 34.944C12.9181 35.1914 12.34 35.3276 11.7523 35.344C11.1646 35.3604 10.5797 35.2568 10.0334 35.0395C9.48713 34.8222 8.9909 34.4958 8.57507 34.0801C8.15924 33.6645 7.83254 33.1685 7.61495 32.6223C7.39736 32.0761 7.29344 31.4913 7.30957 30.9036C7.32569 30.3159 7.4615 29.7377 7.70871 29.2042C7.95421 28.6745 8.30443 28.2 8.73824 27.8094L15.3497 21.6657C14.8777 21.205 14.534 20.868 14.2666 20.6058L14.2663 20.6056L14.2655 20.6047L14.2654 20.6046C14.1024 20.4448 13.9678 20.3128 13.8497 20.1976L13.8422 20.1902C13.4479 19.7984 13.1891 19.291 13.1034 18.7418C13.0787 18.5836 13.0688 18.4243 13.0733 18.2658ZM15.5132 18.3061C15.5092 18.3258 15.5087 18.3461 15.5118 18.3662C15.5173 18.4012 15.5335 18.4337 15.5582 18.459C15.6794 18.5774 15.8151 18.7104 15.9778 18.87L15.9785 18.8706C16.2538 19.1405 16.6065 19.4864 17.0977 19.9657L18.6204 18.603C17.82 17.8235 17.3203 17.3375 17.0119 17.0382L17.0081 17.0345C16.9852 17.012 16.956 16.9969 16.9243 16.9912C16.8944 16.9858 16.8635 16.989 16.8353 17.0004L15.5371 18.2829L15.5338 18.2862C15.527 18.2929 15.5201 18.2995 15.5132 18.3061ZM4.08048 12.5501L4.8418 11.7566L4.85349 11.7687L4.08048 12.5501ZM4.84726 11.7509L4.85893 11.7632L4.93759 11.6836C4.93317 11.6793 4.92867 11.675 4.92408 11.6708L4.84726 11.7509ZM22.6252 25.5994L24.21 23.9056C27.0202 26.5074 30.1458 29.3432 31.5924 30.5647L29.3224 32.8341C28.0864 31.4143 25.251 28.3589 22.6252 25.5994ZM10.3817 29.6096L20.9454 19.7933L21.2185 19.5489C21.257 19.5144 21.2931 19.4777 21.3266 19.4391L23.5651 17.359L23.5667 17.3574C24.0094 16.948 24.3304 16.4242 24.4944 15.8439C24.6585 15.2629 24.659 14.6479 24.4956 14.0667L26.8118 10.8322L26.8118 10.8526C26.8118 11.7212 27.1556 12.5544 27.7681 13.1703L27.7692 13.1714L29.4841 14.8871L29.4856 14.8885C30.1016 15.5006 30.9348 15.8442 31.8033 15.8442C32.6717 15.8442 33.5049 15.5006 34.121 14.8885L34.1224 14.8871L36.5576 12.451C36.5738 12.8892 36.544 13.3589 36.4603 13.8419C36.2461 15.0781 35.7031 16.2541 34.8746 17.0702C33.3708 18.5517 31.0093 18.7575 28.6515 18.1278C28.0764 17.9736 27.4702 17.9791 26.898 18.1437C26.3265 18.3081 25.8106 18.6249 25.4056 19.0602L25.404 19.0619L13.0463 32.2694L13.0372 32.2796C12.8662 32.4707 12.658 32.625 12.4254 32.7329C12.1927 32.8409 11.9405 32.9003 11.6842 32.9074C11.4278 32.9146 11.1727 32.8694 10.9344 32.7746C10.6961 32.6798 10.4796 32.5374 10.2982 32.3561C10.1168 32.1748 9.97428 31.9584 9.87936 31.7202C9.78445 31.4819 9.73912 31.2268 9.74615 30.9704C9.75318 30.7141 9.81243 30.4618 9.92027 30.2291C10.0281 29.9964 10.1823 29.7882 10.3733 29.6171L10.3817 29.6096ZM26.8118 10.8321V10.8322L30.1951 6.10786C28.5371 5.99815 26.7745 6.57283 25.5422 7.79644L25.5421 7.79657C24.0252 9.30232 23.8278 11.6905 24.4955 14.0666L26.8118 10.8321ZM26.8118 10.8321L30.1951 6.10786L27.7693 8.53366L27.7681 8.53485C27.1604 9.14588 26.8172 9.97092 26.8118 10.8321Z" fill="#003554"/>
</g>
<defs>
<clipPath id="clip0_378_2104">
<rect width="39" height="39" fill="white"/>
</clipPath>
</defs>
</svg>
