<svg width="39" height="39" viewBox="0 0 39 39" fill="none" xmlns="http://www.w3.org/2000/svg">
<path fill-rule="evenodd" clip-rule="evenodd" d="M3.65626 13.6153V9.14062C3.65626 8.00931 4.10568 6.92433 4.90564 6.12437C5.7056 5.32441 6.79057 4.875 7.92189 4.875H13.7026C14.5448 4.87502 15.3681 5.12435 16.0689 5.59156L18.1896 7.00537C18.4899 7.20562 18.8428 7.31248 19.2037 7.3125H31.0781C32.2095 7.3125 33.2944 7.76191 34.0944 8.56187C34.8943 9.36183 35.3438 10.4468 35.3438 11.5781V13.6153C35.43 13.6458 35.5152 13.6795 35.5991 13.7165C36.0601 13.9196 36.4742 14.2158 36.8154 14.5864C37.1565 14.9571 37.4174 15.3942 37.5816 15.8704C37.7459 16.3467 37.8099 16.8517 37.7698 17.3539L36.5549 17.2567L37.7678 17.3756L36.5376 29.924C36.5209 31.0306 36.0745 32.0885 35.2914 32.873C34.4931 33.6727 33.41 34.123 32.28 34.125L32.2778 34.125H6.72218L6.72005 34.125C5.59003 34.123 4.50697 33.6727 3.70862 32.873C2.92549 32.0885 2.47911 31.0306 2.46238 29.924L1.23219 17.3756C1.23148 17.3684 1.23084 17.3611 1.23026 17.3539C1.19004 16.8507 1.25442 16.3448 1.41934 15.8677C1.58427 15.3907 1.84617 14.953 2.18855 14.5822C2.53094 14.2114 2.94639 13.9155 3.40875 13.7131C3.49017 13.6774 3.57273 13.6448 3.65626 13.6153ZM6.62921 7.84795C6.97205 7.50511 7.43704 7.3125 7.92189 7.3125H13.7026C14.0635 7.31252 14.4164 7.41938 14.7167 7.61963L16.8374 9.03344C17.5381 9.50065 18.3615 9.74998 19.2037 9.75H31.0781C31.563 9.75 32.028 9.94261 32.3708 10.2854C32.7137 10.6283 32.9063 11.0933 32.9063 11.5781V13.4062H6.09376V9.14062C6.09376 8.65578 6.28637 8.19079 6.62921 7.84795ZM4.87501 15.8438C4.70677 15.8437 4.54029 15.8786 4.38617 15.946C4.23205 16.0135 4.09356 16.1121 3.97944 16.2357C3.86531 16.3593 3.77801 16.5052 3.72303 16.6642C3.66905 16.8204 3.64738 16.9859 3.65932 17.1506L4.89357 29.7405C4.89745 29.78 4.89939 29.8197 4.89939 29.8594C4.89939 30.3437 5.09155 30.8082 5.4337 31.1509C5.77558 31.4934 6.2393 31.6864 6.72319 31.6875H32.2768C32.7607 31.6864 33.2244 31.4934 33.5663 31.1509C33.9085 30.8082 34.1006 30.3437 34.1006 29.8594C34.1006 29.8197 34.1026 29.78 34.1064 29.7405L35.3407 17.1506C35.3526 16.9862 35.3311 16.821 35.2773 16.6651C35.2226 16.5064 35.1356 16.3607 35.0219 16.2371C34.9082 16.1136 34.7701 16.0149 34.6165 15.9472C34.4633 15.8797 34.2978 15.8445 34.1304 15.8438H4.87501Z" fill="#003554"/>
</svg>
