<svg width="80" height="64" viewBox="0 0 80 64" fill="none" xmlns="http://www.w3.org/2000/svg">
<path fill-rule="evenodd" clip-rule="evenodd" d="M5.87529 19.3253V9.6875C5.87529 7.25082 6.84326 4.91395 8.56625 3.19096C10.2892 1.46797 12.6261 0.5 15.0628 0.5H27.5135C29.3275 0.500046 31.1009 1.03706 32.6101 2.04337L37.1778 5.0885C37.8246 5.5198 38.5847 5.74997 39.3621 5.75H64.9378C67.3745 5.75 69.7113 6.71797 71.4343 8.44096C73.1573 10.1639 74.1253 12.5008 74.1253 14.9375V19.3253C74.311 19.3909 74.4945 19.4636 74.6753 19.5433C75.6682 19.9807 76.5601 20.6185 77.2949 21.4169C78.0297 22.2152 78.5915 23.1568 78.9453 24.1825C79.299 25.2082 79.437 26.296 79.3505 27.3776L76.7339 27.1684L79.3464 27.4245L76.6967 54.4516C76.6607 56.8352 75.6992 59.1137 74.0125 60.8034C72.293 62.5259 69.9603 63.4957 67.5264 63.5L67.5218 63.5H12.4788L12.4742 63.5C10.0403 63.4957 7.70757 62.5259 5.98806 60.8034C4.30133 59.1137 3.33988 56.8352 3.30384 54.4516L0.65422 27.4245C0.652688 27.4088 0.651296 27.3932 0.650044 27.3775C0.563417 26.2939 0.702082 25.2041 1.05731 24.1767C1.41253 23.1493 1.97662 22.2066 2.71407 21.4078C3.45151 20.6091 4.34633 19.9718 5.34218 19.5359C5.51754 19.4591 5.69537 19.3889 5.87529 19.3253ZM12.2786 6.90327C13.017 6.16484 14.0185 5.75 15.0628 5.75H27.5135C28.2909 5.75003 29.0509 5.9802 29.6978 6.4115L34.2655 9.45663C35.7747 10.4629 37.5481 11 39.3621 11H64.9378C65.9821 11 66.9836 11.4148 67.722 12.1533C68.4604 12.8917 68.8753 13.8932 68.8753 14.9375V18.875H11.1253V9.6875C11.1253 8.64321 11.5401 7.64169 12.2786 6.90327ZM8.50029 24.125C8.13793 24.125 7.77935 24.2 7.44739 24.3453C7.11544 24.4906 6.81717 24.703 6.57136 24.9693C6.32554 25.2355 6.13751 25.5498 6.0191 25.8922C5.90282 26.2285 5.85616 26.5849 5.88187 26.9397L8.54027 54.0564C8.54861 54.1415 8.55279 54.227 8.55279 54.3125C8.55279 55.3556 8.96669 56.3561 9.70362 57.0943C10.44 57.832 11.4388 58.2475 12.481 58.25H67.5196C68.5618 58.2475 69.5606 57.832 70.297 57.0943C71.0339 56.3561 71.4478 55.3556 71.4478 54.3125C71.4478 54.227 71.452 54.1415 71.4603 54.0564L74.1187 26.9397C74.1444 26.5856 74.0979 26.2299 73.9822 25.8942C73.8642 25.5522 73.6769 25.2384 73.432 24.9723C73.1871 24.7062 72.8898 24.4935 72.5588 24.3477C72.2289 24.2024 71.8725 24.1266 71.512 24.125H8.50029Z" fill="#003554"/>
</svg>
