<svg width="85" height="86" viewBox="0 0 85 86" fill="none" xmlns="http://www.w3.org/2000/svg">
<path d="M66.7386 28.3906C66.2522 35.1425 61.2435 40.3438 55.7816 40.3438C50.3197 40.3438 45.3027 35.1441 44.8245 28.3906C44.3265 21.3665 49.2024 16.4375 55.7816 16.4375C62.3608 16.4375 67.2367 21.4943 66.7386 28.3906Z" stroke="white" stroke-width="5.3125" stroke-linecap="round" stroke-linejoin="round"/>
<path d="M55.7816 50.9688C44.9623 50.9688 34.5581 56.3427 31.9517 66.8083C31.6064 68.1929 32.4746 69.5625 33.8974 69.5625H77.6674C79.0902 69.5625 79.9534 68.1929 79.6131 66.8083C77.0067 56.175 66.6025 50.9688 55.7816 50.9688Z" stroke="white" stroke-width="5.3125" stroke-miterlimit="10"/>
<path d="M33.2028 31.3689C32.8143 36.7611 28.7669 41.0078 24.404 41.0078C20.0411 41.0078 15.987 36.7628 15.6052 31.3689C15.2084 25.7593 19.1479 21.75 24.404 21.75C29.66 21.75 33.5996 25.8622 33.2028 31.3689Z" stroke="white" stroke-width="5.3125" stroke-linecap="round" stroke-linejoin="round"/>
<path d="M34.1994 51.3008C31.2028 49.9279 27.9024 49.3999 24.4045 49.3999C15.7716 49.3999 7.45426 53.6914 5.37076 62.0503C5.09684 63.156 5.79078 64.25 6.92633 64.25H25.5666" stroke="white" stroke-width="5.3125" stroke-miterlimit="10" stroke-linecap="round"/>
</svg>
