<svg width="43" height="43" viewBox="0 0 43 43" fill="none" xmlns="http://www.w3.org/2000/svg">
<path d="M33.7617 14.1094C33.5156 17.525 30.9818 20.1562 28.2188 20.1562C25.4557 20.1562 22.9177 17.5259 22.6758 14.1094C22.4238 10.556 24.8905 8.0625 28.2188 8.0625C31.5471 8.0625 34.0137 10.6207 33.7617 14.1094Z" stroke="#003554" stroke-width="2.6875" stroke-linecap="round" stroke-linejoin="round"/>
<path d="M28.2188 25.5312C22.7455 25.5312 17.4822 28.2498 16.1637 33.5442C15.989 34.2446 16.4282 34.9375 17.148 34.9375H39.2904C40.0102 34.9375 40.4469 34.2446 40.2747 33.5442C38.9562 28.165 33.6929 25.5312 28.2188 25.5312Z" stroke="#003554" stroke-width="2.6875" stroke-miterlimit="10"/>
<path d="M16.7969 15.6161C16.6004 18.3439 14.5528 20.4922 12.3457 20.4922C10.1386 20.4922 8.0877 18.3447 7.89454 15.6161C7.69382 12.7782 9.68677 10.75 12.3457 10.75C15.0047 10.75 16.9976 12.8303 16.7969 15.6161Z" stroke="#003554" stroke-width="2.6875" stroke-linecap="round" stroke-linejoin="round"/>
<path d="M17.3009 25.6992C15.785 25.0046 14.1153 24.7375 12.3458 24.7375C7.9786 24.7375 3.77099 26.9085 2.71698 31.1372C2.57841 31.6965 2.92946 32.25 3.50392 32.25H12.9337" stroke="#003554" stroke-width="2.6875" stroke-miterlimit="10" stroke-linecap="round"/>
</svg>
