<svg width="33" height="34" viewBox="0 0 33 34" fill="none" xmlns="http://www.w3.org/2000/svg">
<path fill-rule="evenodd" clip-rule="evenodd" d="M27.5 11.5C30.5376 11.5 33 9.03757 33 6C33 2.96243 30.5376 0.5 27.5 0.5C24.4624 0.5 22 2.96243 22 6C22 6.42325 22.0478 6.83533 22.1383 7.23114L8.93359 12.6108L8.98977 12.7487C8.04033 11.9684 6.82487 11.5 5.5 11.5C2.46243 11.5 0 13.9624 0 17C0 20.0376 2.46243 22.5 5.5 22.5C6.6558 22.5 7.72833 22.1435 8.61362 21.5344L22.0002 27.9586C22.0001 27.9724 22 27.9862 22 28C22 31.0376 24.4624 33.5 27.5 33.5C30.5376 33.5 33 31.0376 33 28C33 24.9624 30.5376 22.5 27.5 22.5C25.56 22.5 23.8547 23.5044 22.8755 25.0215L10.4942 19.3071C10.8188 18.6055 11 17.8239 11 17C11 16.3471 10.8862 15.7208 10.6775 15.1398L23.5655 9.88912L23.5331 9.80975C24.534 10.8516 25.9413 11.5 27.5 11.5ZM27.5 8.5C28.8807 8.5 30 7.38071 30 6C30 4.61929 28.8807 3.5 27.5 3.5C26.1193 3.5 25 4.61929 25 6C25 7.38071 26.1193 8.5 27.5 8.5ZM5.5 19.5C6.88071 19.5 8 18.3807 8 17C8 15.6193 6.88071 14.5 5.5 14.5C4.11929 14.5 3 15.6193 3 17C3 18.3807 4.11929 19.5 5.5 19.5ZM30 28C30 29.3807 28.8807 30.5 27.5 30.5C26.1193 30.5 25 29.3807 25 28C25 26.6193 26.1193 25.5 27.5 25.5C28.8807 25.5 30 26.6193 30 28Z" fill="#FFC225"/>
</svg>
