<svg width="41" height="49" viewBox="0 0 41 49" fill="none" xmlns="http://www.w3.org/2000/svg">
<path d="M18.0385 13.2425C18.9984 9.55333 20.7874 5.78637 24.053 3.22114C24.947 8.30251 28.1773 11.8846 31.1696 15.2028C31.3946 15.4523 31.6182 15.7002 31.8394 15.9472C35.5034 20.0391 38.7694 24.0749 38.7694 30.7256C38.7694 39.7407 30.7078 47.2968 20.4429 47.2968C10.1781 47.2968 2.11645 39.7407 2.11645 30.7256C2.11645 25.4806 4.83748 20.6353 9.11972 17.5483C10.0493 22.0829 13.1725 23.9268 14.439 24.4843C15.8328 25.0979 17.1076 23.9342 17.049 22.6804C16.9936 21.4953 16.9207 17.5392 18.0385 13.2425Z" stroke="#003554" stroke-width="3.23339"/>
</svg>
