<svg width="13" height="13" viewBox="0 0 13 13" fill="none" xmlns="http://www.w3.org/2000/svg">
<path d="M5.79898 0.585517C6.11697 0.0571185 6.88303 0.0571188 7.20103 0.585517L8.78997 3.22579C8.90421 3.41562 9.09055 3.551 9.30639 3.60099L12.3084 4.29628C12.9092 4.43542 13.146 5.16399 12.7417 5.6297L10.7217 7.95677C10.5764 8.12407 10.5053 8.34313 10.5244 8.56385L10.7908 11.6338C10.8442 12.2482 10.2244 12.6985 9.65656 12.4579L6.81916 11.2559C6.61516 11.1694 6.38484 11.1694 6.18084 11.2559L3.34344 12.4579C2.77559 12.6985 2.15584 12.2482 2.20916 11.6338L2.47559 8.56385C2.49475 8.34313 2.42357 8.12407 2.27834 7.95677L0.258297 5.6297C-0.145974 5.16399 0.0907527 4.43542 0.691555 4.29627L3.69361 3.60099C3.90945 3.551 4.09579 3.41562 4.21003 3.22579L5.79898 0.585517Z" fill="#FF5D29"/>
</svg>
