<svg width="13" height="13" viewBox="0 0 13 13" fill="none" xmlns="http://www.w3.org/2000/svg">
<path d="M5.79898 0.584784C6.11697 0.0563861 6.88303 0.0563864 7.20103 0.584785L8.78997 3.22506C8.90421 3.41489 9.09055 3.55027 9.30639 3.60026L12.3084 4.29554C12.9092 4.43469 13.146 5.16326 12.7417 5.62897L10.7217 7.95603C10.5764 8.12334 10.5053 8.3424 10.5244 8.56312L10.7908 11.6331C10.8442 12.2475 10.2244 12.6978 9.65656 12.4572L6.81916 11.2551C6.61516 11.1687 6.38484 11.1687 6.18084 11.2551L3.34344 12.4572C2.77559 12.6978 2.15584 12.2475 2.20916 11.6331L2.47559 8.56312C2.49475 8.3424 2.42357 8.12334 2.27834 7.95603L0.258297 5.62897C-0.145974 5.16326 0.0907527 4.43469 0.691555 4.29554L3.69361 3.60026C3.90945 3.55027 4.09579 3.41489 4.21003 3.22506L5.79898 0.584784Z" fill="#FFCF26"/>
</svg>
