<svg width="477" height="106" viewBox="0 0 477 106" fill="none" xmlns="http://www.w3.org/2000/svg">
<path d="M476.741 52.3877C476.741 53.1977 476.741 53.9125 476.741 54.929C317.865 54.929 159.004 54.929 0 54.929C0 54.0395 0 53.293 0 52.3877C158.813 52.3877 317.69 52.3877 476.741 52.3877Z" fill="white"/>
<path d="M162.037 11.2669C162.037 20.0501 162.021 28.6587 162.085 37.2831C162.085 37.7437 162.831 38.2043 163.26 38.6331C163.356 38.7284 163.61 38.6808 163.784 38.7125C166.85 39.2208 166.85 39.2208 166.532 42.5721C161.64 42.5721 156.716 42.5721 151.713 42.5721C151.713 41.4762 151.713 40.4279 151.713 39.2684C153.238 38.9349 154.731 38.6172 156.208 38.2996C156.208 27.4198 156.208 16.6671 156.208 5.85081C154.683 5.53315 153.222 5.23138 151.729 4.91372C151.729 3.73838 151.729 2.62658 151.729 1.34007C154.969 1.34007 158.13 1.32418 161.291 1.37183C161.64 1.37183 162.117 1.62596 162.307 1.91185C165.007 6.18435 167.692 10.4569 170.328 14.777C172.266 17.9536 174.108 21.1937 176.078 24.3544C177.841 27.2133 179.715 30.0087 181.7 33.09C181.7 23.8938 181.7 14.9676 181.7 5.81904C180.287 5.51727 178.794 5.21549 177.253 4.88195C177.253 3.73838 177.253 2.67423 177.253 1.46713C182.161 1.46713 187.037 1.46713 192.072 1.46713C192.072 2.49952 192.072 3.59544 192.072 4.88195C190.722 5.16785 189.276 5.4855 187.625 5.83493C187.625 18.033 187.625 30.2787 187.625 42.715C185.766 42.715 184.067 42.9374 182.463 42.6197C181.684 42.4609 181.001 41.3809 180.446 40.6026C179.366 39.0461 178.397 37.4101 177.412 35.7901C175.331 32.3435 173.314 28.8651 171.186 25.4503C168.803 21.5908 166.326 17.7948 163.88 13.9829C163.356 13.1411 162.768 12.331 162.037 11.2669Z" fill="white"/>
<path d="M388.226 38.3314C389.655 38.6014 391.053 38.8873 392.593 39.1732C392.593 40.285 392.593 41.3809 392.593 42.6039C387.844 42.6039 383.095 42.6039 377.791 42.6039C378.124 41.3491 378.092 39.7767 378.839 39.2049C379.76 38.4902 381.317 38.5855 382.73 38.2996C382.73 37.6325 382.73 37.0449 382.73 36.4572C382.73 26.8798 382.698 17.3024 382.762 7.7409C382.778 6.27968 382.46 5.67613 380.904 5.46965C377.87 5.07258 377.886 4.94551 378.172 1.67364C378.299 1.59422 378.458 1.45127 378.601 1.45127C385.653 1.51481 392.752 1.18127 399.757 1.8007C407.222 2.46778 411.621 8.3921 409.969 15.4282C409.223 18.6048 406.586 20.1772 404.585 21.7655C406.03 23.2903 407.92 24.6403 408.889 26.4986C409.826 28.3093 409.874 30.5964 410.208 32.6929C410.335 33.503 410.223 34.3607 410.239 35.2024C410.287 38.5061 410.303 38.5061 413.464 39.3002C413.464 40.3326 413.464 41.3968 413.464 42.858C411.685 42.6992 409.89 42.7627 408.206 42.3498C405.443 41.6827 405.046 39.1732 404.648 36.9019C404.378 35.3295 404.442 33.6777 404.49 32.0735C404.633 27.5469 401.027 23.9891 396.612 24.3068C393.88 24.4974 391.116 24.3385 388.226 24.3385C388.226 28.9605 388.226 33.5347 388.226 38.3314ZM388.083 6.05732C388.083 8.3921 388.083 10.6634 388.083 12.9346C388.083 15.19 388.083 17.4454 388.083 20.0502C391.942 19.8596 395.595 19.8913 399.169 19.399C400.662 19.1925 402.488 18.1919 403.314 16.9848C406.253 12.6646 404.14 6.96264 398.978 6.1685C395.484 5.62848 391.847 6.05732 388.083 6.05732Z" fill="white"/>
<path d="M231.048 4.91363C231.048 3.59535 231.048 2.54708 231.048 1.40351C231.62 1.37175 232.081 1.3241 232.557 1.3241C236.909 1.3241 241.277 1.3241 245.756 1.3241C245.756 2.57885 245.756 3.67477 245.756 4.88187C244.628 5.12011 243.485 5.24717 242.452 5.64425C241.96 5.83484 241.34 6.53369 241.34 6.99429C241.277 14.7134 241.182 22.4484 241.34 30.1675C241.468 36.8859 246.979 39.5542 252.443 38.8872C257.89 38.236 261.512 34.6464 261.305 28.7856C261.035 21.1936 261.242 13.5857 261.242 5.81896C259.701 5.51718 258.192 5.23129 256.652 4.92952C256.652 3.72242 256.652 2.61061 256.652 1.40351C261.496 1.40351 266.277 1.40351 271.184 1.40351C271.184 2.49943 271.184 3.59535 271.184 4.89775C270.216 5.10423 269.199 5.45365 268.151 5.51718C266.864 5.58072 266.626 6.18427 266.642 7.34372C266.69 14.8246 266.721 22.3213 266.642 29.8021C266.61 33.2646 265.832 36.5365 263.179 39.0936C258.685 43.4614 248.726 44.5097 243.103 41.762C237.417 38.9666 235.559 34.4241 235.559 28.5792C235.559 21.6383 235.496 14.6816 235.607 7.74079C235.623 6.12073 235.098 5.46953 233.59 5.34247C232.732 5.29482 231.922 5.08834 231.048 4.91363Z" fill="white"/>
<path d="M337.401 22.1784C336.956 18.2712 337.877 14.4434 339.497 11.0445C342.483 4.85015 348.328 0.212345 356.444 0.752364C366.863 1.45121 373.487 10.4727 373.995 20.876C374.249 26.308 373.026 31.4064 369.992 35.8536C365.291 42.7785 355.603 45.4786 347.725 41.6508C343.833 39.7608 341.181 36.8224 339.481 33.1535C337.941 29.7704 337.004 26.0538 337.401 22.1784ZM343.007 21.956C343.071 23.1949 343.103 24.2749 343.166 25.355C343.341 28.6269 344.151 31.6764 346.232 34.3288C348.36 37.0289 351.06 38.5537 354.475 38.7284C360.494 39.046 365.275 35.9806 367.165 29.5163C368.833 23.7826 368.722 18.1759 366.228 12.5692C364.719 9.18618 362.289 7.05788 358.986 5.99372C353.045 4.07189 348.042 6.54962 344.977 11.9022C343.134 15.0946 343.23 18.6206 343.007 21.956Z" fill="white"/>
<path d="M147.52 22.9409C147.79 27.0228 146.424 31.4382 143.994 35.266C140.849 40.2056 136.053 42.9851 130.033 43.3822C125.665 43.6681 121.567 42.588 118.296 39.9038C115.024 37.2355 112.689 33.6777 111.736 29.3417C110.497 23.7191 110.545 18.2554 112.514 12.7599C116.151 2.61074 125.745 -0.93115 133.575 1.34011C138.578 2.80133 142.374 5.83497 144.788 10.5681C146.678 14.2847 147.6 18.176 147.52 22.9409ZM116.517 22.6073C116.898 27.0704 117.231 31.3111 120.202 34.8372C125.443 41.0315 136.053 39.6656 139.547 32.5183C142.263 26.9592 142.517 21.0349 140.849 15.0471C139.753 11.1399 137.577 7.97916 133.813 6.39087C127.619 3.77019 121.695 5.94615 118.55 11.9817C116.803 15.3329 116.596 19.0813 116.517 22.6073Z" fill="white"/>
<path d="M475.026 42.6198C471.262 42.6198 467.465 42.6198 463.574 42.6198C463.574 41.4444 463.574 40.3326 463.574 39.1891C464.511 38.9826 465.369 38.792 466.417 38.5696C465.56 36.346 464.797 34.1701 463.876 32.0576C463.685 31.6129 462.907 31.2 462.383 31.1841C457.713 31.1205 453.044 31.1682 448.374 31.1205C447.358 31.1047 446.834 31.5017 446.548 32.4071C445.912 34.4401 445.261 36.4731 444.594 38.5537C445.468 38.7761 446.325 38.9826 447.31 39.2367C447.31 40.3167 447.31 41.4127 447.31 42.6198C443.498 42.6198 439.75 42.6198 435.731 42.6198C435.731 41.8256 435.573 41.0315 435.779 40.3485C435.938 39.8244 436.526 39.1096 436.97 39.0779C438.32 38.9667 438.892 38.2678 439.353 37.0766C441.37 31.8512 443.514 26.6892 445.547 21.4637C447.93 15.317 450.28 9.1386 452.551 2.94427C453.028 1.64187 453.663 1.11773 454.997 1.32421C455.585 1.41951 456.205 1.38774 456.792 1.32421C457.698 1.22891 458.158 1.56245 458.492 2.4519C460.048 6.64498 461.684 10.7904 463.272 14.9676C464.813 19.0178 466.354 23.0838 467.894 27.1339C469.197 30.5805 470.483 34.0271 471.833 37.4578C472.056 37.9978 472.5 38.6808 472.993 38.8555C475.518 39.7926 475.534 39.745 475.026 42.6198ZM461.97 26.3715C459.826 20.4313 457.745 14.6817 455.506 8.47152C453.203 14.777 451.122 20.4949 448.978 26.3715C453.409 26.3715 457.555 26.3715 461.97 26.3715Z" fill="white"/>
<path d="M39.1835 30.104C40.6924 30.104 41.9471 30.104 43.3448 30.104C43.6307 31.4382 44.0755 32.7565 44.1549 34.0906C44.2343 35.536 45.0125 36.3301 46.0926 36.9972C49.8251 39.3161 56.9883 40.1738 61.0702 36.4413C63.7226 34.0271 63.4367 28.6587 60.1172 27.2451C56.1465 25.5615 51.9693 24.3544 47.9191 22.8138C41.8995 20.5107 36.7058 14.7452 40.4383 7.53441C42.6619 3.26191 46.6008 1.5942 51.0322 0.927118C56.1306 0.164739 60.7843 1.34007 65.2474 4.05605C67.3598 5.34257 68.1539 6.67673 67.8839 9.01152C67.7092 10.5363 67.8522 12.0928 67.8522 13.7287C66.3592 13.7287 65.0727 13.7287 63.6114 13.7287C63.4367 12.8393 63.1032 11.9181 63.0873 10.9969C63.0396 8.07443 61.3719 6.56555 58.7989 5.83494C55.6859 4.96138 52.5569 4.70725 49.4756 5.91435C46.1402 7.21675 44.7266 9.31329 44.949 12.4422C45.1237 14.9517 47.3314 17.223 50.1586 18.176C54.4946 19.6372 58.8307 21.1619 63.0555 22.8932C66.4545 24.275 68.6781 29.4052 68.2334 33.6141C67.8522 37.2513 65.9621 39.6655 62.7855 41.222C56.893 44.0969 50.921 44.1763 44.9649 41.5079C43.3766 40.7932 41.9313 39.7767 40.4224 38.8714C39.3106 38.2043 39.1041 37.1878 39.1518 35.9489C39.247 34.0747 39.1835 32.1529 39.1835 30.104Z" fill="white"/>
<path d="M225.696 13.7923C224.139 13.7923 222.9 13.7923 221.455 13.7923C221.169 12.0769 220.931 10.3775 220.581 8.69388C220.47 8.16974 220.216 7.48678 219.803 7.26442C215.435 4.75492 210.861 4.15137 206.335 6.6291C201.649 9.18625 201.57 14.3323 206.176 17.0006C208.24 18.1919 210.686 18.716 212.942 19.6054C215.817 20.7331 218.771 21.7179 221.487 23.1473C225.87 25.4503 227.634 31.8194 225.664 36.2984C223.345 41.6191 218.612 42.6356 213.72 43.3027C209.082 43.938 204.73 42.6198 200.617 40.5391C198.488 39.4591 197.011 37.9025 197.313 35.1866C197.488 33.5506 197.345 31.867 197.345 30.1358C198.854 30.1358 200.156 30.1358 201.601 30.1358C201.919 31.7082 202.173 33.2965 202.618 34.8371C202.824 35.536 203.285 36.3143 203.857 36.6954C208.638 39.872 215.69 39.8879 219.231 36.3937C219.851 35.7901 220.454 34.9007 220.55 34.0748C221.074 28.9763 220.169 27.4992 215.229 25.6409C212.275 24.545 209.146 23.9415 206.207 22.7979C200.188 20.4631 195.709 16.0318 198.155 8.66211C199.807 3.70665 203.984 1.97541 208.495 1.03832C214.514 -0.200547 219.946 1.62599 224.918 4.99316C225.299 5.24729 225.616 5.86672 225.632 6.34321C225.743 8.78918 225.696 11.2193 225.696 13.7923Z" fill="white"/>
<path d="M105.097 30.3105C105.097 32.5341 105.462 34.7577 104.97 36.7907C104.636 38.1566 103.318 39.6178 102.047 40.3485C98.7277 42.2544 95.1858 43.5886 91.1992 43.398C84.7031 43.0803 79.6841 40.3643 76.3805 34.6941C72.0444 27.2927 71.838 19.6213 75.1098 11.8069C78.9217 2.6901 88.4515 -1.36004 97.5206 1.73712C99.7283 2.48362 101.825 3.81778 103.715 5.1996C104.509 5.77138 104.922 7.20084 105.049 8.28088C105.256 10.0915 105.113 11.9498 105.113 13.8875C103.667 13.8875 102.444 13.8875 101.142 13.8875C100.967 13.0616 100.777 12.3151 100.65 11.5528C99.9507 7.48673 97.9018 5.69197 93.7405 5.23136C89.1503 4.72311 85.1637 6.16845 82.3842 9.64681C80.1606 12.4104 79.0806 15.9523 78.747 19.5895C78.2864 24.7356 79.1441 29.6593 81.8918 34.0271C84.1472 37.6166 89.2615 40.0785 94.8682 38.6172C95.6147 38.4266 96.3453 38.1249 97.0759 37.8548C99.0772 37.1401 100.522 35.9489 100.507 33.5982C100.507 33.487 100.554 33.36 100.57 33.2488C101.19 29.8022 101.19 29.8022 105.097 30.3105Z" fill="white"/>
<path d="M325.091 39.2208C325.091 40.3961 325.091 41.4444 325.091 42.6197C320.152 42.6197 315.275 42.6197 309.828 42.6197C310.209 41.3332 310.193 39.7767 310.939 39.2049C311.861 38.4901 313.417 38.5854 314.72 38.3313C314.72 27.4992 314.72 16.7941 314.72 5.83489C311.877 5.83489 309.097 5.80312 306.302 5.88254C306.032 5.89842 305.619 6.59727 305.539 7.0261C304.904 10.7109 304.92 10.7109 301.171 10.5839C300.997 10.5839 300.822 10.5362 300.504 10.4886C300.504 7.53436 300.504 4.58014 300.504 1.48297C311.718 1.48297 322.995 1.48297 334.446 1.48297C334.446 4.38954 334.446 7.34376 334.446 10.4568C333.08 10.4568 331.698 10.4568 330.158 10.4568C330.031 9.31324 329.999 8.16967 329.761 7.07375C329.665 6.61315 329.189 5.89842 328.871 5.88254C326.139 5.78724 323.392 5.83489 320.501 5.83489C320.501 6.69256 320.501 7.32788 320.501 7.97908C320.501 17.4453 320.549 26.8956 320.453 36.3618C320.437 38.0295 320.898 38.776 322.582 38.7919C323.376 38.776 324.138 39.046 325.091 39.2208Z" fill="white"/>
<path d="M35.1169 10.4886C33.4651 10.441 31.5115 10.9493 30.6697 10.2028C29.812 9.45626 30.0661 7.45501 29.812 5.89849C26.8578 5.89849 23.9512 5.89849 20.9176 5.89849C20.9176 16.683 20.9176 27.4198 20.9176 38.2837C21.5211 38.4267 22.1406 38.5855 22.7759 38.7126C25.6666 39.3002 25.6666 39.3002 25.3171 42.5562C20.5364 42.5562 15.7556 42.5562 10.8637 42.5562C10.8637 41.4444 10.8637 40.3962 10.8637 39.2049C12.3408 38.8873 13.8338 38.5855 15.3586 38.252C15.3586 27.4675 15.3586 16.7624 15.3586 5.91437C12.309 5.91437 9.30717 5.91437 6.27353 5.91437C6.09882 7.47089 5.93999 8.94801 5.76528 10.4569C4.14522 10.4569 2.68399 10.4569 1.0957 10.4569C1.0957 7.40736 1.0957 4.45314 1.0957 1.40363C12.452 1.40363 23.7288 1.40363 35.1169 1.40363C35.1169 4.45314 35.1169 7.40736 35.1169 10.4886Z" fill="white"/>
<path d="M274.885 42.588C274.885 41.6826 274.869 40.9203 274.885 40.1579C274.885 39.872 274.949 39.5861 274.98 39.2684C276.616 38.9508 278.189 38.649 279.872 38.3155C279.872 37.5213 279.872 36.8066 279.872 36.1077C279.872 26.5939 279.856 17.08 279.888 7.56616C279.888 6.31142 279.729 5.54904 278.22 5.50139C277.156 5.4855 276.108 5.1202 274.964 4.88195C274.964 3.75427 274.964 2.65835 274.964 1.43536C279.999 1.43536 284.987 1.43536 290.117 1.43536C290.117 2.56305 290.117 3.65897 290.117 4.88195C288.687 5.16785 287.242 5.45374 285.717 5.75551C285.717 16.5559 285.717 27.2927 285.717 38.1884C290.276 38.1884 294.85 38.1884 299.567 38.1884C299.758 36.7748 299.932 35.3136 300.139 33.7412C301.648 33.7412 303.172 33.7412 304.808 33.7412C304.808 36.6478 304.808 39.5385 304.808 42.588C294.897 42.588 285.002 42.588 274.885 42.588Z" fill="white"/>
<path d="M432.142 42.6355C427.218 42.6355 422.39 42.6355 416.99 42.6355C417.419 41.2855 417.466 39.7925 418.213 39.1731C419.07 38.4742 420.563 38.5695 421.945 38.2836C421.945 37.6165 421.945 37.0289 421.945 36.4412C421.945 26.8638 421.913 17.3023 421.977 7.72491C421.993 6.26368 421.675 5.66013 420.103 5.43777C417.037 5.02481 417.053 4.89775 417.514 1.46704C422.358 1.46704 427.218 1.46704 432.206 1.46704C432.206 2.59473 432.206 3.70653 432.206 4.91363C431.078 5.13599 429.934 5.24717 428.87 5.61248C428.378 5.78719 427.695 6.45427 427.695 6.91488C427.631 17.0323 427.631 27.1338 427.695 37.2512C427.695 37.7118 428.41 38.2042 428.854 38.633C428.997 38.7601 429.315 38.6966 429.553 38.7283C432.571 39.2207 432.571 39.2207 432.142 42.6355Z" fill="white"/>
<path d="M98.0132 71.2725C98.0132 81.914 98.0132 92.5397 98.0132 103.372C99.0932 103.372 100.094 103.324 101.094 103.404C101.412 103.419 101.698 103.769 102 103.959C101.746 104.15 101.507 104.484 101.253 104.484C98.5532 104.531 95.869 104.531 93.1689 104.484C92.9148 104.484 92.6606 104.15 92.3906 103.975C92.6765 103.769 92.9465 103.404 93.2483 103.388C94.2013 103.308 95.1542 103.356 96.266 103.356C96.266 92.1267 96.266 80.9769 96.266 69.6365C95.0113 69.6365 93.7724 69.6365 92.4542 69.6365C92.4542 68.9377 92.4542 68.4453 92.4542 67.8418C94.4554 67.8418 96.409 67.8418 98.3467 67.8418C103.35 79.2616 108.337 90.6814 113.547 102.578C118.709 90.8243 123.743 79.3569 128.81 67.81C130.732 67.81 132.701 67.81 134.846 67.81C134.909 68.3024 134.957 68.7947 135.052 69.5095C133.639 69.5095 132.352 69.5095 130.938 69.5095C130.938 80.8657 130.938 92.0155 130.938 103.213C132.32 103.324 133.67 103.435 135.004 103.562C134.989 103.817 134.973 104.071 134.973 104.325C134.194 104.388 133.416 104.484 132.638 104.5C130.605 104.515 128.572 104.531 126.539 104.484C126.142 104.468 125.761 104.166 125.379 103.991C125.776 103.785 126.174 103.435 126.587 103.388C127.412 103.292 128.254 103.356 129.223 103.356C129.223 92.5397 129.223 81.8028 129.223 70.6689C128.27 72.6066 127.412 74.2426 126.65 75.9262C125.586 78.3086 124.569 80.7069 123.553 83.1052C121.488 87.9654 119.439 92.8415 117.343 97.7016C116.469 99.7346 115.516 101.72 114.531 103.705C114.357 104.055 113.848 104.452 113.499 104.436C113.181 104.42 112.768 103.944 112.61 103.578C110.592 99.147 108.623 94.6839 106.622 90.2367C104.43 85.3447 102.222 80.4687 100.078 75.5767C99.4426 74.1155 98.9185 72.6066 98.3467 71.1136C98.2355 71.1772 98.1243 71.2248 98.0132 71.2725Z" fill="white"/>
<path d="M175.776 87.5525C175.776 92.8574 175.776 98.0353 175.776 103.324C177.142 103.404 178.428 103.483 179.715 103.563C179.699 103.817 179.667 104.071 179.651 104.309C176.475 104.309 173.282 104.309 170.106 104.309C170.074 104.103 170.042 103.912 169.995 103.705C171.313 103.547 172.631 103.388 174.156 103.213C174.156 102.594 174.156 101.942 174.156 101.307C174.156 91.555 174.156 81.8029 174.156 72.0508C174.156 69.7002 174.156 69.7002 171.869 69.6843C171.345 69.6843 170.805 69.6843 170.122 69.6843C170.09 69.049 170.058 68.5566 170.042 68.0642C170.312 67.953 170.471 67.8419 170.63 67.8419C175.601 67.826 180.604 67.4289 185.512 67.953C189.674 68.3978 194.105 69.2872 195.9 74.0838C197.123 77.3557 197.123 80.5641 194.629 83.28C193.311 84.7254 191.722 85.9166 190.404 87.1078C191.977 87.0602 193.628 87.902 194.565 89.5379C195.455 91.0944 196.186 92.8415 196.519 94.5887C196.884 96.4311 196.598 98.4006 196.805 100.307C196.996 102.101 197.774 103.515 199.982 103.42C200.252 103.404 200.537 103.817 200.807 104.023C200.537 104.198 200.299 104.468 200.013 104.515C197.52 104.913 196.027 104.055 195.534 101.561C195.153 99.703 195.137 97.7652 195.121 95.8593C195.058 91.0785 192.31 87.8702 187.561 87.6002C183.733 87.3619 179.826 87.5525 175.776 87.5525ZM175.824 69.9702C175.824 75.3386 175.824 80.7388 175.824 86.0595C179.778 86.0595 183.606 86.2343 187.418 85.9801C188.991 85.869 190.674 85.0748 192.008 84.1695C194.899 82.2 195.566 79.1981 194.963 75.9104C194.407 72.9403 191.961 70.2084 189.213 70.0496C184.797 69.7796 180.382 69.9702 175.824 69.9702Z" fill="white"/>
<path d="M323.566 87.0601C327.41 87.3778 330.126 90.2685 330.221 93.588C330.285 95.7957 330.269 98.0193 330.46 100.211C330.618 102.069 331.508 103.372 333.636 103.388C333.922 103.388 334.208 103.769 334.51 103.975C334.192 104.15 333.89 104.468 333.573 104.5C331 104.722 330.237 104.325 329.65 101.768C329.237 99.9888 329.221 98.0987 329.189 96.2563C329.11 91.3485 326.775 88.2196 321.867 87.7113C317.801 87.2984 313.655 87.6319 309.431 87.6319C309.431 92.8097 309.431 97.9876 309.431 103.245C310.765 103.388 312.067 103.547 313.385 103.69C313.354 103.912 313.322 104.15 313.29 104.372C310.129 104.372 306.953 104.372 303.268 104.372C304.825 102.768 306.524 103.88 307.858 103.197C307.858 92.1426 307.858 81.0246 307.858 69.716C306.508 69.716 305.222 69.716 303.824 69.716C303.824 69.0171 303.824 68.5248 303.824 68.0165C304.03 67.9371 304.205 67.8418 304.364 67.8418C309.399 67.8259 314.45 67.4924 319.437 67.9689C322.264 68.2389 325.329 69.3348 327.617 70.9866C331.953 74.0997 331.698 83.4865 324.916 86.4725C324.599 86.5836 324.281 86.7266 323.566 87.0601ZM309.399 86.123C309.717 86.1866 309.939 86.266 310.177 86.266C313.227 86.2501 316.292 86.3136 319.342 86.1866C322.185 86.0754 324.678 85.2812 326.965 83.2165C329.141 81.2629 329.697 76.3233 328.284 74.1156C326.648 71.5584 324.662 69.7795 321.359 69.8748C317.388 70.0019 313.417 69.9066 309.415 69.9066C309.399 75.3544 309.399 80.7228 309.399 86.123Z" fill="white"/>
<path d="M86.7047 67.8735C86.7047 70.1766 86.7206 72.3684 86.6888 74.5761C86.6888 74.8461 86.3553 75.1003 86.1965 75.3544C85.99 75.0685 85.6088 74.7826 85.6088 74.4808C85.5453 72.9402 85.577 71.3995 85.577 69.7318C78.9856 69.7318 72.5531 69.7318 65.9775 69.7318C65.9775 74.7349 65.9775 79.7222 65.9775 84.9477C68.3917 84.9477 70.7583 84.9477 73.1248 84.9477C75.5708 84.9477 78.0327 84.9 80.4786 84.9953C80.9233 85.0112 81.3522 85.5353 81.781 85.8212C81.7016 86.0277 81.6063 86.2342 81.5269 86.4406C76.3491 86.4406 71.1871 86.4406 65.9299 86.4406C65.9299 92.1267 65.9299 97.6063 65.9299 103.229C72.3942 103.229 78.8268 103.229 85.5612 103.229C85.5612 101.672 85.5294 100.021 85.5929 98.3846C85.6088 98.0034 85.9265 97.6381 86.1171 97.2728C86.3235 97.6222 86.6888 97.9716 86.7047 98.3211C86.7683 100.291 86.7365 102.26 86.7365 104.436C86.0694 104.468 85.4976 104.515 84.9258 104.515C77.3338 104.515 69.7259 104.515 62.1339 104.515C61.8321 104.515 61.4986 104.595 61.2444 104.484C60.9268 104.357 60.6885 104.071 60.4026 103.864C60.6726 103.705 60.9268 103.404 61.2127 103.388C62.2133 103.324 63.2139 103.372 64.2939 103.372C64.2939 92.0791 64.2939 80.9769 64.2939 69.6842C63.0392 69.6842 61.8003 69.6842 60.4662 69.6842C60.4185 69.0012 60.4026 68.493 60.355 67.8735C69.1382 67.8735 77.8421 67.8735 86.7047 67.8735Z" fill="white"/>
<path d="M230.715 67.8735C230.747 70.4783 230.763 72.9561 230.715 75.4179C230.365 75.3861 230 75.3544 229.651 75.3385C229.651 73.512 229.651 71.6854 229.651 69.7636C223.028 69.7636 216.595 69.7636 210.035 69.7636C210.035 74.7826 210.035 79.7698 210.035 84.9794C212.942 84.9794 215.801 84.9794 218.644 84.9794C220.613 84.9794 222.599 84.9318 224.568 85.0271C224.997 85.043 225.41 85.5989 225.839 85.9006C225.744 86.0753 225.648 86.2501 225.553 86.4248C220.423 86.4248 215.309 86.4248 210.051 86.4248C210.051 92.095 210.051 97.6222 210.051 103.261C216.516 103.261 222.948 103.261 229.619 103.261C229.619 101.291 229.619 99.2899 229.619 97.2251C230.874 97.7175 231.128 100.021 230.604 104.42C230.111 104.452 229.603 104.531 229.095 104.531C221.439 104.531 213.784 104.531 206.112 104.531C205.811 104.531 205.493 104.595 205.223 104.5C204.937 104.404 204.699 104.166 204.429 103.991C204.715 103.785 205 103.419 205.302 103.404C206.255 103.324 207.208 103.372 208.288 103.372C208.288 92.1426 208.288 80.9928 208.288 69.6524C207.034 69.6524 205.811 69.6524 204.476 69.6524C204.476 68.9695 204.476 68.4612 204.476 67.8735C213.164 67.8735 221.82 67.8735 230.715 67.8735Z" fill="white"/>
<path d="M356.905 103.372C358.176 103.372 359.065 103.34 359.954 103.388C360.224 103.404 360.494 103.705 360.749 103.864C360.526 104.071 360.32 104.468 360.097 104.468C357.89 104.515 355.666 104.515 353.458 104.468C353.236 104.468 353.029 104.071 352.807 103.848C353.014 103.69 353.22 103.404 353.442 103.388C354.157 103.324 354.872 103.372 355.571 103.372C356.73 100.243 357.842 97.2252 358.986 94.2392C361.098 88.7278 363.258 83.2482 365.355 77.7369C366.514 74.6874 367.562 71.5902 368.722 68.5407C368.849 68.2071 369.325 67.8895 369.675 67.8259C369.897 67.7942 370.326 68.2071 370.453 68.5089C371.867 71.8602 373.312 75.1956 374.583 78.6104C376.52 83.7883 378.283 89.0296 380.205 94.2075C381.349 97.2729 382.667 100.259 383.826 103.054C384.795 103.372 385.574 103.626 386.352 103.88C385.526 104.103 384.716 104.436 383.89 104.5C382.461 104.595 381.015 104.563 379.586 104.484C379.3 104.468 379.046 104.071 378.776 103.864C379.046 103.705 379.3 103.42 379.57 103.404C380.332 103.34 381.11 103.388 382.222 103.388C381.38 101.291 380.602 99.4012 379.872 97.4793C378.458 93.7627 378.474 93.7627 374.408 93.7627C370.342 93.7627 366.276 93.7945 362.194 93.7468C361.209 93.731 360.717 94.001 360.352 94.9698C359.319 97.6699 358.16 100.338 356.905 103.372ZM369.627 69.9384C366.816 77.3716 364.068 84.6777 361.241 92.1586C366.975 92.1586 372.423 92.1586 377.95 92.1586C375.186 84.7412 372.47 77.4828 369.627 69.9384Z" fill="white"/>
<path d="M270.247 103.372C271.502 103.372 272.455 103.34 273.392 103.404C273.646 103.419 273.885 103.753 274.139 103.944C273.9 104.134 273.662 104.5 273.424 104.5C271.264 104.547 269.12 104.547 266.96 104.5C266.69 104.5 266.436 104.166 266.166 103.991C266.404 103.785 266.69 103.372 266.864 103.419C269.485 104.023 269.517 101.863 270.104 100.37C271.216 97.4793 272.265 94.5727 273.313 91.6661C273.916 89.9984 274.425 88.299 275.092 86.6471C276.902 82.0887 278.792 77.5462 280.587 72.9878C281.238 71.336 281.667 69.6207 282.223 67.8735C282.779 67.8735 283.303 67.8735 283.811 67.8735C285.908 73.2578 288.036 78.5945 290.101 83.9788C291.483 87.5842 292.785 91.2214 294.104 94.8586C294.945 97.1457 295.803 99.417 296.565 101.736C296.947 102.848 297.375 103.674 298.789 103.451C299.091 103.404 299.472 103.817 299.821 104.023C299.774 104.198 299.71 104.372 299.663 104.547C297.344 104.547 295.041 104.563 292.722 104.531C292.515 104.531 292.325 104.214 292.118 104.039C292.341 103.832 292.563 103.467 292.801 103.451C293.627 103.372 294.453 103.419 295.676 103.419C294.485 100.275 293.421 97.384 292.261 94.525C292.118 94.1756 291.467 93.8262 291.038 93.8262C285.765 93.7785 280.508 93.7786 275.235 93.8103C274.822 93.8103 274.155 94.0009 274.028 94.2868C272.757 97.1934 271.566 100.163 270.247 103.372ZM274.679 92.1426C280.238 92.1426 285.749 92.1426 291.435 92.1426C288.656 84.6618 285.956 77.3556 283.16 69.843C280.27 77.4192 277.49 84.7412 274.679 92.1426Z" fill="white"/>
<path d="M144.105 88.966C144.105 93.8579 144.105 98.4957 144.105 103.372C145.169 103.372 146.17 103.324 147.155 103.404C147.457 103.419 147.727 103.785 148.013 103.991C147.758 104.166 147.504 104.499 147.25 104.499C144.566 104.531 141.866 104.531 139.182 104.499C138.927 104.499 138.689 104.15 138.435 103.959C138.689 103.769 138.927 103.435 139.182 103.419C140.182 103.356 141.199 103.388 142.342 103.388C142.342 92.1108 142.342 80.961 142.342 69.6841C141.056 69.6841 139.88 69.6841 138.562 69.6841C138.499 69.0647 138.435 68.5723 138.372 68.0164C138.673 67.9211 138.896 67.8099 139.118 67.8099C143.899 67.7941 148.727 67.4605 153.46 67.937C156.224 68.2229 159.178 69.3665 161.465 70.9548C164.69 73.1943 165.277 79.3727 163.689 83.0099C161.704 87.5524 157.876 88.6642 153.572 88.9501C150.506 89.1248 147.393 88.966 144.105 88.966ZM144.153 87.473C147.457 87.473 150.57 87.5524 153.667 87.4412C155.128 87.3936 156.685 87.2665 158.019 86.7106C161.386 85.3129 162.895 82.5175 163.085 78.9439C163.292 74.8778 160.786 71.3709 157.129 70.0336C152.661 68.8598 148.568 69.6841 144.169 69.6841C144.153 75.3702 144.153 81.4692 144.153 87.473Z" fill="white"/>
<path d="M238.593 93.7627C238.593 95.3193 238.561 96.8599 238.609 98.4005C238.625 98.8929 238.736 99.5759 239.069 99.8459C244.644 104.595 253.364 106.056 259.574 100.068C261.607 98.0988 261.448 93.318 259.32 91.4121C256.779 89.1408 253.841 87.9019 250.521 86.9807C246.836 85.9642 243.31 84.2171 239.848 82.5335C238.037 81.66 237.052 77.1016 237.799 74.6238C238.482 72.3367 239.705 70.7484 241.928 69.4142C245.931 67.0159 250.124 67.3971 254.222 67.953C256.429 68.2548 258.542 70.0337 260.464 71.4473C262.179 72.702 261.639 74.8303 261.623 76.641C261.623 77.3875 261.321 78.134 261.163 78.8805C260.94 78.134 260.559 77.3875 260.543 76.641C260.48 73.115 258.319 70.7166 254.825 69.8431C251.299 68.9536 247.884 68.9695 244.39 69.8748C241.897 70.526 239.054 73.4008 238.752 75.958C238.45 78.5946 240.324 81.8188 243.024 82.8035C247.265 84.3601 251.665 85.5672 255.858 87.2507C259.161 88.5849 261.909 90.7132 262.211 94.7475C262.481 98.3052 261.417 101.228 258.224 103.15C255 105.087 251.442 105.389 247.869 104.976C245.55 104.706 243.183 104.055 241.087 103.022C237.465 101.259 236.29 98.2417 237.211 94.2869C237.291 93.9374 237.815 93.7151 238.132 93.4292C238.291 93.5404 238.434 93.6516 238.593 93.7627Z" fill="white"/>
<path d="M394.325 69.6524C393.007 69.6524 391.784 69.6524 390.434 69.6524C390.434 68.9695 390.434 68.4771 390.434 67.8735C393.563 67.8735 396.644 67.8735 399.884 67.8735C399.916 68.3818 399.963 68.8742 400.011 69.5412C398.661 69.6048 397.438 69.6524 396.104 69.7159C396.104 80.8975 396.104 91.9838 396.104 103.229C401.774 103.229 407.476 103.229 413.384 103.229C413.384 101.609 413.337 100.005 413.416 98.4164C413.432 98.0193 413.861 97.654 414.115 97.2728C414.29 97.654 414.607 98.0193 414.607 98.4005C414.655 100.37 414.623 102.324 414.623 104.404C406.459 104.404 398.439 104.404 389.909 104.404C391.339 102.705 392.991 103.832 394.309 103.181C394.325 92.1585 394.325 81.0563 394.325 69.6524Z" fill="white"/>
<path d="M343.372 103.372C343.372 92.0156 343.372 80.9611 343.372 69.716C342.022 69.716 340.736 69.716 339.338 69.716C339.274 69.033 339.227 68.5248 339.163 67.8895C342.292 67.8895 345.31 67.8895 348.486 67.8895C348.534 68.3342 348.598 68.8424 348.677 69.5413C347.327 69.5413 346.104 69.5413 344.722 69.5413C344.722 80.8658 344.722 92.0156 344.722 103.372C345.723 103.372 346.723 103.324 347.708 103.404C348.01 103.42 348.28 103.801 348.566 104.007C348.296 104.182 348.042 104.5 347.772 104.5C345.199 104.531 342.626 104.547 340.053 104.5C339.767 104.5 339.497 104.102 339.227 103.88C339.497 103.721 339.751 103.42 340.021 103.404C341.085 103.34 342.149 103.372 343.372 103.372Z" fill="white"/>
</svg>
